<svg width="78" height="78" viewBox="0 0 78 78" fill="none" xmlns="http://www.w3.org/2000/svg">
<g filter="url(#filter0_d_9_1313)">
<path d="M16 23.2408C16 10.4052 26.4052 0 39.2408 0C52.0763 0 62.4815 10.4052 62.4815 23.2408C62.4815 36.0763 52.0763 46.4815 39.2408 46.4815C26.4052 46.4815 16 36.0763 16 23.2408Z" fill="url(#paint0_linear_9_1313)" shape-rendering="crispEdges"/>
<path d="M48.9409 26.7905L43.7587 24.4684L43.7444 24.4618C43.4754 24.3467 43.1819 24.3006 42.8906 24.3274C42.5992 24.3543 42.3191 24.4534 42.0757 24.6158C42.047 24.6347 42.0195 24.6553 41.9932 24.6774L39.3158 26.9599C37.6196 26.136 35.8684 24.398 35.0445 22.7238L37.3303 20.0057C37.3523 19.9782 37.3732 19.9507 37.393 19.921C37.5518 19.6782 37.6482 19.3999 37.6736 19.1109C37.6989 18.8219 37.6524 18.531 37.5382 18.2643V18.2511L35.2095 13.0602C35.0585 12.7118 34.7989 12.4215 34.4694 12.2328C34.1399 12.0441 33.7582 11.967 33.3812 12.013C31.8907 12.2091 30.5225 12.9411 29.5322 14.0723C28.542 15.2035 27.9973 16.6564 28 18.1598C28 26.8939 35.1061 34 43.8401 34C45.3435 34.0027 46.7965 33.458 47.9276 32.4677C49.0588 31.4775 49.7908 30.1093 49.987 28.6187C50.0331 28.2419 49.9561 27.8603 49.7676 27.5309C49.5791 27.2014 49.2891 26.9417 48.9409 26.7905ZM43.8401 32.24C40.1071 32.2359 36.5281 30.7511 33.8885 28.1115C31.2488 25.4718 29.7641 21.8929 29.76 18.1598C29.7559 17.0857 30.1429 16.0467 30.8487 15.237C31.5546 14.4273 32.5311 13.9022 33.5958 13.7598C33.5953 13.7642 33.5953 13.7686 33.5958 13.773L35.9058 18.943L33.632 21.6645C33.609 21.691 33.588 21.7193 33.5693 21.7492C33.4038 22.0032 33.3067 22.2957 33.2874 22.5982C33.2682 22.9008 33.3274 23.2032 33.4593 23.4762C34.456 25.5145 36.5097 27.5528 38.57 28.5483C38.8449 28.6791 39.1491 28.7362 39.4528 28.7143C39.7565 28.6923 40.0492 28.5919 40.3025 28.4229C40.3307 28.4039 40.3579 28.3833 40.3839 28.3613L43.058 26.0799L48.2281 28.3954C48.2281 28.3954 48.2369 28.3954 48.2402 28.3954C48.0995 29.4616 47.5752 30.4401 46.7653 31.1477C45.9555 31.8553 44.9156 32.2436 43.8401 32.24Z" fill="black"/>
</g>
<defs>
<filter id="filter0_d_9_1313" x="0.506166" y="0" width="77.4691" height="77.4691" filterUnits="userSpaceOnUse" color-interpolation-filters="sRGB">
<feFlood flood-opacity="0" result="BackgroundImageFix"/>
<feColorMatrix in="SourceAlpha" type="matrix" values="0 0 0 0 0 0 0 0 0 0 0 0 0 0 0 0 0 0 127 0" result="hardAlpha"/>
<feOffset dy="15.4938"/>
<feGaussianBlur stdDeviation="7.74692"/>
<feComposite in2="hardAlpha" operator="out"/>
<feColorMatrix type="matrix" values="0 0 0 0 0.176471 0 0 0 0 0.74902 0 0 0 0 0.376471 0 0 0 0.2 0"/>
<feBlend mode="normal" in2="BackgroundImageFix" result="effect1_dropShadow_9_1313"/>
<feBlend mode="normal" in="SourceGraphic" in2="effect1_dropShadow_9_1313" result="shape"/>
</filter>
<linearGradient id="paint0_linear_9_1313" x1="39.2408" y1="0" x2="39.2408" y2="46.4815" gradientUnits="userSpaceOnUse">
<stop stop-color="#47C634"/>
<stop offset="1" stop-color="#2DBF60"/>
</linearGradient>
</defs>
</svg>
